<svg width="14" height="15" viewBox="0 0 14 15" fill="none" xmlns="http://www.w3.org/2000/svg">
<path d="M0.340489 0.397245C0.558786 0.164137 0.854698 0.0332028 1.16323 0.0332028C1.47175 0.0332028 1.76766 0.164137 1.98596 0.397245L6.98447 5.74154L11.983 0.397245C12.1253 0.23339 12.3063 0.113606 12.5069 0.0505134C12.7076 -0.0125794 12.9204 -0.0166447 13.123 0.0387454C13.3256 0.0941355 13.5105 0.20693 13.6582 0.365246C13.8059 0.523562 13.9109 0.721537 13.9622 0.938313C14.0139 1.15471 14.0102 1.38199 13.9515 1.59633C13.8928 1.81067 13.7812 2.00418 13.6285 2.15655L8.62995 7.50084L13.6285 12.8451C13.7817 12.9973 13.8937 13.1908 13.9528 13.4053C14.0118 13.6198 14.0156 13.8474 13.9638 14.064C13.912 14.2807 13.8065 14.4783 13.6584 14.6363C13.5103 14.7942 13.3251 14.9064 13.1224 14.9613C12.92 15.0165 12.7074 15.0126 12.507 14.9498C12.3065 14.887 12.1255 14.7677 11.983 14.6044L6.98447 9.26014L1.98596 14.6044C1.7653 14.8246 1.47331 14.9445 1.17155 14.9389C0.86979 14.9334 0.581845 14.8027 0.368431 14.5746C0.155027 14.3464 0.032837 14.0385 0.0276243 13.7159C0.0224115 13.3932 0.134584 13.081 0.340489 12.8451L5.339 7.50084L0.340489 2.15655C0.122463 1.92315 0 1.60677 0 1.2769C0 0.947026 0.122463 0.630644 0.340489 0.397245Z" fill="black"/>
</svg>
