<svg width="24" height="24" viewBox="0 0 24 24" fill="none" xmlns="http://www.w3.org/2000/svg">
<path d="M19.1753 14.9984C18.0038 17.833 15.2163 19.7991 12 19.7991C8.8139 19.7991 6.00797 17.8616 4.82475 14.9984C4.6751 14.6379 4.84617 14.2236 5.20659 14.0745C5.56567 13.9254 5.98007 14.0966 6.12889 14.457C7.07693 16.7484 9.3394 18.3929 12.0262 18.3822C14.6973 18.3716 16.9324 16.7262 17.8711 14.457C18.0199 14.0965 18.4343 13.9239 18.7934 14.0745C19.154 14.2236 19.3249 14.6379 19.1753 14.9984ZM24 6.364V9.17164C24 9.54649 23.9258 9.90071 23.8175 10.24C23.8193 10.2496 23.8256 10.2571 23.8271 10.2667C23.9146 10.8537 23.9588 11.4379 23.9588 11.9999C23.9588 18.6166 18.5848 24 11.9796 24C5.37434 24 0 18.6168 0 12.0001C0 11.388 0.0516538 10.7607 0.150311 10.1363C0.0621174 9.82767 0 9.50839 0 9.17164V6.364C0 4.41387 1.58334 2.82844 3.52941 2.82844H4.28711C6.44728 1.00776 9.16484 0 11.9794 0C14.7928 0 17.5105 1.00742 19.6704 2.82844H20.4706C22.4167 2.82844 24 4.41387 24 6.364ZM20.4706 4.24266H16.2353C15.0675 4.24266 14.1176 5.19419 14.1176 6.364V9.17164C14.1176 10.3415 15.0675 11.293 16.2353 11.293H20.4706C21.6384 11.293 22.5882 10.3415 22.5882 9.17164V6.364C22.5882 5.19419 21.6384 4.24266 20.4706 4.24266ZM6.73462 2.82844H7.76471C9.71078 2.82844 11.2941 4.41387 11.2941 6.364V7.06013H12.7059V6.364C12.7059 4.41387 14.2892 2.82844 16.2353 2.82844H17.2244C15.6344 1.91169 13.8306 1.41422 11.9794 1.41422C10.1278 1.41422 8.32459 1.91186 6.73462 2.82844ZM1.41176 9.17164C1.41176 10.3415 2.36163 11.293 3.52941 11.293H7.76471C8.93248 11.293 9.88235 10.3415 9.88235 9.17164V6.364C9.88235 5.19419 8.93248 4.24266 7.76471 4.24266H3.52941C2.36163 4.24266 1.41176 5.19419 1.41176 6.364V9.17164ZM22.546 12.0172C21.9621 12.446 21.2486 12.7072 20.4706 12.7072H16.2353C14.2892 12.7072 12.7059 11.1218 12.7059 9.17164V8.47418H11.2941V9.17164C11.2941 11.1218 9.71078 12.7072 7.76471 12.7072H3.52941C2.73251 12.7072 2.00454 12.4313 1.41309 11.9833C1.41309 11.9888 1.41176 11.9944 1.41176 12.0001C1.41176 17.8365 6.1523 22.5859 11.9792 22.5859C17.8005 22.5859 22.5367 17.8456 22.546 12.0172ZM5.14796 9.69224C5.42367 9.96843 5.87045 9.96843 6.14616 9.69224L8.26381 7.57091C8.53952 7.29472 8.53952 6.84716 8.26381 6.57097C7.9881 6.29478 7.54131 6.29478 7.26561 6.57097L5.14796 8.6923C4.87225 8.96866 4.87225 9.41605 5.14796 9.69224ZM4.02851 8.27802L5.44028 6.8638C5.71599 6.58761 5.71599 6.14005 5.44028 5.86386C5.16457 5.58767 4.71779 5.58767 4.44208 5.86386L3.03031 7.27808C2.7546 7.55427 2.7546 8.00183 3.03031 8.27802C3.30602 8.55437 3.7528 8.55437 4.02851 8.27802ZM17.8538 9.69224C18.1295 9.96843 18.5763 9.96843 18.852 9.69224L20.9697 7.57091C21.2454 7.29472 21.2454 6.84716 20.9697 6.57097C20.694 6.29478 20.2472 6.29478 19.9715 6.57097L17.8538 8.6923C17.5781 8.96866 17.5781 9.41605 17.8538 9.69224ZM15.7362 8.27802C16.0119 8.55421 16.4587 8.55421 16.7344 8.27802L18.1462 6.8638C18.4219 6.58761 18.4219 6.14005 18.1462 5.86386C17.8705 5.58767 17.4237 5.58767 17.148 5.86386L15.7362 7.27808C15.4605 7.55444 15.4605 8.00183 15.7362 8.27802Z" fill="#232A3F"/>
</svg>
