<svg width="192" height="47" viewBox="0 0 192 47" fill="none" xmlns="http://www.w3.org/2000/svg">
<path d="M169.578 22.1994C169.578 17.6751 168.185 14.134 165.402 11.576C162.844 9.19215 159.546 8 155.509 8H142.849V20.764C142.849 25.0797 143.919 28.5858 146.06 31.283C148.409 34.2761 151.741 35.7725 156.057 35.7725C159.868 35.7725 163.074 34.4846 165.676 31.9093C168.277 29.3345 169.578 26.0977 169.578 22.1994Z" fill="#FF9A03"/>
<path d="M112.357 8H109.903V46.7876H112.357V8Z" fill="#1D1E20"/>
<path d="M191.959 8H189.479V20.5552C189.479 23.3395 189.035 25.671 188.148 27.5504C187.155 29.7259 185.502 31.2223 183.188 32.0399L173.87 8.00025H171.207L180.943 32.6405C179.69 32.8493 178.472 32.9537 177.289 32.9537H171.912V35.2511H177.289C182.579 35.2511 186.555 33.4329 189.218 29.7958C191.044 27.3421 191.958 23.9056 191.958 19.4854V8H191.959Z" fill="#1D1E20"/>
<path d="M118.951 17.1357H116.472V46.7876H118.951V17.1357ZM138.165 20.1112V8H115.95V10.2969H135.659V19.041C135.659 23.5483 134.449 27.0981 132.031 29.6906C131.289 30.5087 130.178 31.3936 128.725 32.3414L127.695 32.68C126.676 32.8888 125.685 32.9932 124.723 32.9932H122.903V35.2903H124.723C128.351 35.2903 131.217 33.9918 133.325 31.4047C133.909 30.8976 134.454 30.3197 134.954 29.6388C137.094 26.7501 138.165 23.5742 138.165 20.1112Z" fill="#1D1E20"/>
<path d="M151.914 22.635C151.318 22.9388 150.589 22.7016 150.286 22.1054C149.982 21.51 150.219 20.7813 150.815 20.4775C151.411 20.1742 152.139 20.4111 152.442 21.0066C152.747 21.6025 152.51 22.3315 151.914 22.635Z" fill="#1D1E20"/>
<path d="M156.26 22.635C155.664 22.9388 154.935 22.7016 154.631 22.1054C154.328 21.51 154.564 20.7813 155.16 20.4775C155.756 20.1742 156.485 20.4111 156.788 21.0066C157.092 21.6025 156.855 22.3315 156.26 22.635Z" fill="#1D1E20"/>
<path d="M160.606 22.635C160.009 22.9388 159.281 22.7016 158.977 22.1054C158.674 21.51 158.91 20.7813 159.506 20.4775C160.102 20.1742 160.831 20.4111 161.134 21.0066C161.438 21.6025 161.201 22.3315 160.606 22.635Z" fill="#1D1E20"/>
<path d="M23.9684 7.71405V34H19.4369L7.64795 15.1702V34H3.11652V7.71405H7.64795L19.473 26.58V7.71405H23.9684ZM46.5714 30.4073V34H32.616V30.4073H46.5714ZM33.8978 7.71405V34H29.3664V7.71405H33.8978ZM44.748 18.6906V22.2291H32.616V18.6906H44.748ZM46.4811 7.71405V11.3248H32.616V7.71405H46.4811ZM56.8619 28.0965L62.0974 7.71405H64.8416L64.5347 12.9676L58.9381 34H56.0856L56.8619 28.0965ZM52.9443 7.71405L57.1869 27.934L57.566 34H54.533L48.449 7.71405H52.9443ZM70.7812 27.8799L74.9696 7.71405H79.483L73.3989 34H70.3659L70.7812 27.8799ZM65.9067 7.71405L71.0881 28.1507L71.8463 34H68.9939L63.4876 12.9676L63.1987 7.71405H65.9067ZM96.67 27.2299C96.67 26.6883 96.5857 26.2069 96.4172 25.7856C96.2607 25.3644 95.9779 24.9792 95.5687 24.6302C95.1595 24.2812 94.5818 23.9442 93.8356 23.6192C93.1014 23.2822 92.1626 22.9392 91.0192 22.5902C89.7675 22.205 88.6121 21.7778 87.5529 21.3084C86.5058 20.8269 85.5911 20.2733 84.8088 19.6474C84.0265 19.0095 83.4187 18.2814 82.9854 17.463C82.5521 16.6325 82.3354 15.6757 82.3354 14.5924C82.3354 13.5213 82.5581 12.5464 83.0034 11.6678C83.4608 10.7892 84.1047 10.0309 84.9352 9.39303C85.7777 8.7431 86.7706 8.24362 87.914 7.89458C89.0574 7.53351 90.3211 7.35298 91.7052 7.35298C93.655 7.35298 95.334 7.71405 96.7422 8.43619C98.1624 9.15833 99.2516 10.1272 100.01 11.3428C100.78 12.5584 101.165 13.9004 101.165 15.3687H96.67C96.67 14.5022 96.4834 13.7379 96.1103 13.0759C95.7492 12.4019 95.1956 11.8724 94.4494 11.4872C93.7152 11.1021 92.7824 10.9095 91.6511 10.9095C90.5799 10.9095 89.6893 11.072 88.9791 11.397C88.269 11.7219 87.7395 12.1612 87.3904 12.7149C87.0414 13.2685 86.8669 13.8944 86.8669 14.5924C86.8669 15.0859 86.9812 15.5372 87.2099 15.9465C87.4386 16.3436 87.7876 16.7167 88.257 17.0658C88.7264 17.4028 89.3161 17.7217 90.0263 18.0226C90.7364 18.3235 91.5728 18.6124 92.5357 18.8892C93.992 19.3225 95.2618 19.8039 96.345 20.3335C97.4282 20.851 98.3309 21.4408 99.053 22.1027C99.7752 22.7647 100.317 23.5169 100.678 24.3594C101.039 25.1899 101.219 26.1347 101.219 27.1938C101.219 28.3011 100.997 29.3001 100.551 30.1907C100.106 31.0693 99.4683 31.8215 98.6378 32.4474C97.8194 33.0612 96.8324 33.5366 95.677 33.8736C94.5336 34.1986 93.2578 34.3611 91.8497 34.3611C90.5859 34.3611 89.3402 34.1926 88.1126 33.8556C86.897 33.5186 85.7897 33.0071 84.7907 32.321C83.7918 31.623 82.9974 30.7564 82.4077 29.7213C81.8179 28.6742 81.523 27.4526 81.523 26.0564H86.0545C86.0545 26.911 86.1989 27.6391 86.4878 28.2409C86.7887 28.8427 87.2039 29.3362 87.7335 29.7213C88.263 30.0944 88.8768 30.3712 89.5749 30.5518C90.285 30.7323 91.0433 30.8226 91.8497 30.8226C92.9088 30.8226 93.7934 30.6721 94.5035 30.3712C95.2257 30.0703 95.7673 29.6491 96.1284 29.1075C96.4894 28.5659 96.67 27.94 96.67 27.2299Z" fill="#1D1E20"/>
</svg>
